<?xml version="1.0" encoding="UTF-8"?><svg version="1.1" width="190px" height="41px" viewBox="0 0 190.0 41.0" xmlns="http://www.w3.org/2000/svg" xmlns:xlink="http://www.w3.org/1999/xlink"><defs><clipPath id="i0"><path d="M1556,0 L1556,10109 L0,10109 L0,0 L1556,0 Z"></path></clipPath><clipPath id="i1"><path d="M129.295,19.0713738 C130.922925,19.0713738 132.175626,19.6612853 133.052632,20.8428629 L133.106313,20.8428629 L133.106313,19.4736905 L136.434198,19.4736905 L136.434198,33.6988451 C136.434198,35.7740287 135.830318,37.3666279 134.622558,38.4766427 C133.414798,39.5857803 131.853611,40.1408046 129.938996,40.1408046 C128.453758,40.1408046 127.19667,39.8179121 126.168273,39.1738814 C125.138964,38.5298508 124.391959,37.6711658 123.926852,36.5977927 L126.530405,34.799244 C126.941865,35.6047209 127.407006,36.19028 127.926232,36.5576757 C128.44502,36.9241942 129.11611,37.1074366 129.938996,37.1074366 C130.851801,37.1074366 131.580485,36.8700751 132.126771,36.3962295 C132.672179,35.9215065 132.945305,35.1657625 132.945305,34.1281876 L132.945305,32.329639 L132.891625,32.329639 C132.62329,32.8131006 132.157744,33.2293519 131.495831,33.5784268 C130.83348,33.9265906 130.117886,34.1011281 129.348646,34.1011281 C127.52351,34.1011281 125.993735,33.4353014 124.758916,32.1018934 C123.524535,30.769329 122.907159,28.9306634 122.907159,26.5867064 C122.907159,24.2785139 123.542012,22.4485532 124.812596,21.0977017 C126.08318,19.7468164 127.577157,19.0713738 129.295,19.0713738 Z M10.4086163,20.4375365 L16.9683287,31.911289 L12.3168877,40.1231518 L0.964025927,40.1231518 C0.227480006,40.1231518 -0.236209898,39.3296864 0.125382527,38.6879838 L10.4086163,20.4375365 Z M22.6654962,1.90940505 L44.3771357,38.6710092 C44.7561043,39.3127118 44.2935278,40.1231484 43.5482769,40.1231484 L31.7575365,40.1231484 L15.5371285,11.6181802 L20.997994,1.92637631 C21.3618808,1.28055746 22.288552,1.27111024 22.6654962,1.90940505 Z M155.484265,19.4736668 L159.161225,29.1095297 L159.21531,29.1095297 L162.892236,19.4736668 L166.434776,19.4736668 L158.248859,39.7376208 L154.786587,39.7376208 L157.63145,33.0007055 L151.941725,19.4736668 L155.484265,19.4736668 Z M86.8215172,19.0713771 C88.7177772,19.0713771 90.2789643,19.7555247 91.5050451,21.1247309 C92.7302486,22.4930598 93.3433058,24.3142817 93.3433058,26.5867098 L93.3433058,27.6330234 L83.7885878,27.6330234 C83.8422683,28.7247174 84.1415765,29.5615725 84.6874235,30.1427791 C85.2332705,30.723952 85.9802759,31.0145553 86.9288444,31.0145553 C87.7338827,31.0145553 88.4001481,30.8138356 88.9281128,30.4106754 C89.4556052,30.0083924 89.9521579,29.4673365 90.4177373,28.7875414 L92.8602828,30.9342539 C91.410809,33.0460792 89.4516914,34.1011314 86.9825249,34.1011314 C84.9963477,34.1011314 83.3766889,33.4169839 82.1244259,32.0477777 C80.8717243,30.6794488 80.2456096,28.8591041 80.2456096,26.5867098 C80.2456096,24.3142817 80.8669332,22.4930598 82.1108961,21.1247309 C83.3544542,19.7555247 84.9243464,19.0713771 86.8215172,19.0713771 Z M101.194157,19.0713906 C102.786756,19.0713906 104.119725,19.5364976 105.193537,20.4667453 C106.26691,21.396993 106.928823,22.6405511 107.179275,24.1973521 L103.931658,24.8152004 C103.59176,23.0794758 102.67899,22.2112086 101.194157,22.2112086 C100.20979,22.2112086 99.4270199,22.5829568 98.845847,23.325576 C98.2642018,24.0681951 97.9736323,25.1546594 97.9736323,26.5866895 C97.9736323,28.0178425 98.2594107,29.105184 98.8323173,29.8469259 C99.4047852,30.590456 100.191907,30.9613269 101.194157,30.9613269 C102.768435,30.9613269 103.707826,29.9595165 104.012398,27.9550184 L107.313662,28.8137034 C106.991647,30.5145071 106.293969,31.820012 105.220158,32.732816 C104.146785,33.6447429 102.795461,34.1011449 101.167536,34.1011449 C99.2350388,34.1011449 97.6467921,33.4396707 96.4032678,32.1149677 C95.1593048,30.791142 94.5379812,28.9480902 94.5379812,26.5866895 C94.5379812,24.2427325 95.1776257,22.4040669 96.4569482,21.0706253 C97.7362708,19.7380946 99.3153402,19.0713906 101.194157,19.0713906 Z M115.056295,19.071367 C116.917229,19.071367 118.491946,19.7424572 119.779973,21.0846038 C121.068473,22.4258731 121.71247,24.2601863 121.71247,26.5866997 C121.71247,28.9481003 121.085917,30.7911521 119.833654,32.1149778 C118.580952,33.4396471 116.988792,34.1011213 115.056295,34.1011213 C113.123798,34.1011213 111.531199,33.4396471 110.278936,32.1149778 C109.026234,30.7911521 108.40012,28.9481003 108.40012,26.5866997 C108.40012,24.2601863 109.04415,22.4258731 110.332616,21.0846038 C111.620644,19.7424572 113.195361,19.071367 115.056295,19.071367 Z M183.478219,19.0713771 C185.374479,19.0713771 186.935666,19.7555247 188.161747,21.1247309 C189.386951,22.4930598 190.000008,24.3142817 190.000008,26.5867098 L190.000008,27.6330234 L180.44529,27.6330234 C180.49897,28.7247174 180.798278,29.5615725 181.344125,30.1427791 C181.889972,30.723952 182.636978,31.0145553 183.585546,31.0145553 C184.390585,31.0145553 185.05685,30.8138356 185.584815,30.4106754 C186.112307,30.0083924 186.60886,29.4673365 187.074439,28.7875414 L189.516985,30.9342539 C188.067511,33.0460792 186.108393,34.1011314 183.639227,34.1011314 C181.65305,34.1011314 180.033391,33.4169839 178.781128,32.0477777 C177.528426,30.6794488 176.902312,28.8591041 176.902312,26.5867098 C176.902312,24.3142817 177.523635,22.4930598 178.767598,21.1247309 C180.011156,19.7555247 181.581048,19.0713771 183.478219,19.0713771 Z M72.8734058,14.9114177 C74.8059025,14.9114177 76.3666511,15.4524736 77.5569673,16.5345517 C78.7463726,17.6175408 79.3415476,19.071367 79.3415476,20.896098 C79.3415476,22.2565654 78.9881203,23.4102399 78.2812656,24.3588085 C77.5744109,25.3073771 76.6040125,25.9784335 75.3691931,26.3720115 L79.3686071,33.6988384 L75.4499331,33.6988384 L71.6656459,26.7202092 L68.8740255,26.7202092 L68.8740255,33.6988384 L65.2507459,33.6988384 L65.2507459,14.9114177 L72.8734058,14.9114177 Z M146.324451,19.0713704 C147.898695,19.0713704 149.133076,19.5408636 150.028437,20.47985 C150.92292,21.4197136 151.370145,22.7217095 151.370145,24.3858714 L151.370145,33.6988417 L147.881252,33.6988417 L147.881252,25.2445564 C147.881252,24.2601896 147.693185,23.5228002 147.317523,23.0297564 C146.941827,22.5384334 146.297391,22.292367 145.385026,22.292367 C144.525902,22.292367 143.855251,22.5384334 143.371789,23.0297564 C142.8888,23.5228002 142.647491,24.179922 142.647491,25.0028088 L142.647491,33.6988417 L139.158193,33.6988417 L139.158193,19.4736871 L142.513104,19.4736871 L142.513104,20.8428595 L142.566784,20.8428595 C142.960329,20.3419543 143.497032,19.9213505 144.177266,19.5810143 C144.857061,19.2415553 145.572654,19.0713704 146.324451,19.0713704 Z M172.562167,15.9847942 L172.562167,19.4736871 L176.158792,19.4736871 L176.158792,22.4258765 L172.615813,22.4258765 L172.615813,28.304073 C172.615813,29.0554309 172.741057,29.5833956 172.991914,29.8879336 C173.241962,30.191628 173.752011,30.3434921 174.521689,30.3434921 L175.675769,30.3434921 L175.675769,33.6988417 L174.199674,33.6988417 C172.284655,33.6988417 170.969534,33.2965588 170.253974,32.4910819 C169.538381,31.685605 169.180601,30.3975775 169.180601,28.6260884 L169.180601,22.4258765 L166.979769,22.4258765 L166.979769,19.4736871 L169.260902,19.4736871 L169.260902,15.9847942 L172.562167,15.9847942 Z M115.056295,22.211185 C114.071928,22.211185 113.289158,22.5873194 112.707985,23.3386772 C112.12634,24.090035 111.835771,25.1729904 111.835771,26.5866997 C111.835771,28.000409 112.121549,29.082487 112.694456,29.8338449 C113.266924,30.5852027 114.054046,30.9613033 115.056295,30.9613033 C116.058105,30.9613033 116.845228,30.5808502 117.418134,29.8207537 C117.990602,29.0598137 118.277258,27.9820544 118.277258,26.5866997 C118.277258,25.190434 117.98625,24.1127084 117.404604,23.3517684 C116.822993,22.5916719 116.040223,22.211185 115.056295,22.211185 Z M129.88535,22.2111918 C128.847302,22.2111918 128.0065,22.5873262 127.362503,23.338684 C126.718472,24.0900418 126.396457,25.1729971 126.396457,26.5867064 C126.396457,28.000382 126.722386,29.0824938 127.376033,29.8338516 C128.028768,30.5852094 128.865623,30.9613101 129.88535,30.9613101 C130.815597,30.9613101 131.558217,30.6794455 132.113241,30.1157162 C132.667354,29.551987 132.945305,28.8591007 132.945305,28.035303 L132.945305,25.1101731 C132.945305,24.3046962 132.667354,23.6205486 132.113241,23.0567856 C131.558217,22.4930564 130.815597,22.2111918 129.88535,22.2111918 Z M86.8215172,22.1309275 C85.9623599,22.1309275 85.2598914,22.4084059 84.7144831,22.962553 C84.1681974,23.5175772 83.8597119,24.2069545 83.7885878,25.0298751 L89.9617739,25.0298751 C89.8718903,24.117071 89.5590185,23.4058638 89.0223488,22.89622 C88.4852068,22.3857326 87.7513263,22.1309275 86.8215172,22.1309275 Z M183.478219,22.1309275 C182.619062,22.1309275 181.916593,22.4084059 181.371185,22.962553 C180.824899,23.5175772 180.516414,24.2069545 180.44529,25.0298751 L186.618442,25.0298751 C186.528559,24.117071 186.215721,23.4058638 185.679051,22.89622 C185.141943,22.3857326 184.408028,22.1309275 183.478219,22.1309275 Z M58.0298663,0 C58.7727554,0 59.2356355,0.805780563 58.861458,1.44751686 L45.4675915,24.4170878 L31.7322078,0 L58.0298663,0 Z M72.5780114,18.1856225 L68.8740255,18.1856225 L68.8740255,23.5803912 L72.5780114,23.5803912 C74.6353127,23.5803912 75.6645875,22.6859079 75.6645875,20.896098 C75.6645875,19.0888444 74.6353127,18.1856225 72.5780114,18.1856225 Z"></path></clipPath><linearGradient id="i2" x1="-99.53479px" y1="20.0704023px" x2="324.193542px" y2="40.1408046px" gradientUnits="userSpaceOnUse"><stop stop-color="#06CDE2" offset="0%"></stop><stop stop-color="#3362C6" offset="61.2636176%"></stop><stop stop-color="#061239" offset="100%"></stop><stop stop-color="#021029" offset="100%"></stop><stop stop-color="#061239" offset="100%"></stop><stop stop-color="#061239" offset="100%"></stop></linearGradient></defs><g transform="translate(-46.0 -50.0)"><g clip-path="url(#i0)"><g transform="translate(46.0 41.0)"><g transform="translate(0.0 9.0)"><g clip-path="url(#i1)"><polygon points="-1.11022302e-16,0 190.000008,0 190.000008,40.1408046 -1.11022302e-16,40.1408046 -1.11022302e-16,0" stroke="none" fill="url(#i2)"></polygon></g></g></g></g></g></svg>